<?xml version="1.0" encoding="UTF-8" standalone="no"?>
<!-- Created with Inkscape (http://www.inkscape.org/) -->

<svg
   version="1.1"
   id="svg1"
   width="77.481483"
   height="77.481468"
   viewBox="0 0 77.481483 77.481468"
   xmlns="http://www.w3.org/2000/svg"
   xmlns:svg="http://www.w3.org/2000/svg">
  <defs
     id="defs1" />
  <g
     id="g1"
     transform="translate(-73.479367,-71.345583)">
    <path
       style="opacity:1;fill:#17e187;fill-opacity:1;stroke-width:0.213035"
       d="m 113.36085,71.345583 -3.19599,0.09844 c 0,0 -2.44398,0.196881 -4.04196,3.937558 -1.59798,3.740681 -1.59798,3.740681 -1.59798,3.740681 L 73.505161,148.12794 c 0,0 -0.329,0.63985 1.362988,0.68907 1.691986,0.0492 14.428884,-0.0984 14.428884,-0.0984 l 24.016807,-53.944527 19.08184,41.984197 h -18.70584 c 0,0 -1.17499,-0.14766 -2.16199,2.16565 -0.98698,2.31332 -4.13597,9.69624 -4.13597,9.69624 0,0 -0.15192,0.20136 0.42967,0.20136 0.58159,0 37.92204,-0.25058 37.92204,-0.25058 0,0 7.42593,-1.18126 4.55896,-7.48136 -2.86699,-6.30008 -29.70377,-66.643138 -29.70377,-66.643138 0,0 -1.50399,-2.953172 -3.66596,-3.002389 -2.162,-0.04923 -3.57197,-0.09844 -3.57197,-0.09844 z"
       id="path2" />
  </g>
</svg>
